<svg xmlns="http://www.w3.org/2000/svg" fill="none" viewBox="0 0 442 60">
  <path fill="#00ACC1" d="M4 56v-7h433v7z" />
  <style>
    .stroke { fill: white }
    .fill { fill: black }

    @media (prefers-color-scheme: dark) {
      .stroke { fill: black }
      .fill { fill: white }
    }
  </style>
  <path
    class="stroke"
    d="M10.544 41.136l-1.583 3.673.011.005.011.005 1.561-3.683zM6.128 37.68l-3.24 2.345 3.24-2.345zm-1.68-5.328v-4H.385l.063 4.062 4-.062zm7.2 0l3.99-.278-.26-3.722h-3.73v4zm1.44 3.264l-2.718 2.935.027.025.027.024 2.664-2.984zm7.344.096l2.539 3.09.032-.026.032-.027-2.603-3.037zm.432-5.424l-2.9 2.755 2.9-2.755zM18.56 28.8l-1.576 3.677.078.033.08.03 1.418-3.74zm-3.744-1.248l-1.129 3.838.025.007.026.007 1.078-3.852zM9.488 25.68l-1.72 3.611.051.025.052.023 1.617-3.659zm-3.504-2.832l-3.2 2.4.034.045.035.044 3.131-2.489zm.048-10.272l3.317 2.235-3.317-2.235zm4.176-3.36l1.576 3.677.027-.012.028-.012-1.631-3.653zm14.544 1.344l-2.482 3.137.026.02.026.02 2.43-3.177zm3.6 7.008v4h4.309l-.32-4.297-3.989.297zm-7.392 0l-3.994.222.21 3.778h3.784v-4zm-1.488-2.832l-2.603 3.037.058.05.06.047 2.485-3.134zm-6.768-.144l-2.573-3.063-.03.026-.031.027 2.634 3.01zm-.288 5.184l-2.904 2.751.075.078.078.075 2.751-2.904zm2.208 1.44l-1.625 3.655.08.036.082.032 1.463-3.723zm3.744 1.248l-1.15 3.831.011.003.01.004 1.129-3.838zm8.88 4.8l-3.162 2.45 3.162-2.45zm.096 10.032l-3.424-2.069 3.424 2.069zm-4.08 3.696l1.789 3.578.025-.013.025-.013-1.839-3.552zm-6.384-2.656c-1.874 0-3.445-.32-4.775-.883l-3.122 7.366c2.446 1.036 5.1 1.517 7.897 1.517v-8zm-4.753-.873c-1.254-.541-2.13-1.26-2.758-2.127l-6.482 4.689c1.548 2.14 3.616 3.725 6.074 4.784l3.166-7.346zM9.37 35.336c-.558-.771-.9-1.73-.921-3.047l-8 .125c.044 2.78.82 5.373 2.44 7.61l6.48-4.688zm-4.921 1.016h7.2v-8h-7.2v8zm3.21-3.722c.154 2.206.975 4.313 2.712 5.921l5.436-5.87a.249.249 0 01-.066-.096c-.027-.059-.08-.212-.102-.511l-7.98.556zm2.766 5.97c1.815 1.62 4.076 2.216 6.312 2.216v-8c-.426 0-.68-.056-.814-.1a.445.445 0 01-.17-.084L10.424 38.6zm6.312 2.216c2.168 0 4.406-.511 6.235-2.013l-5.078-6.182a.217.217 0 01-.038.023.943.943 0 01-.164.063c-.173.052-.477.109-.955.109v8zm6.3-2.067c1.812-1.554 2.74-3.67 2.74-6.013h-8c0 .058-.005.08-.004.075a.425.425 0 01.069-.144c.013-.017.013-.014-.012.008l5.206 6.074zm2.74-6.013c0-1.88-.608-3.726-2.012-5.203l-5.8 5.51a.758.758 0 01-.164-.267c-.036-.096-.024-.125-.024-.04h8zm-2.012-5.203c-1.07-1.127-2.366-1.935-3.785-2.473l-2.838 7.48c.437.166.677.35.823.503l5.8-5.51zm-3.628-2.41c-1.131-.484-2.572-.955-4.241-1.423l-2.157 7.704c1.53.428 2.585.79 3.246 1.073l3.152-7.354zm-4.191-1.409c-2.084-.612-3.68-1.18-4.84-1.693L7.87 29.34c1.593.703 3.548 1.383 5.816 2.05l2.258-7.674zm-4.737-1.645c-.756-.36-1.452-.904-2.093-1.71l-6.262 4.978c1.343 1.69 2.983 3.034 4.915 3.954l3.44-7.222zm-2.024-1.621c-.296-.395-.64-1.166-.64-2.688h-8c0 2.701.616 5.323 2.24 7.488l6.4-4.8zm-.64-2.688c0-1.285.31-2.213.805-2.949l-6.634-4.47C1.226 12.549.544 15.077.544 17.76h8zm.805-2.949c.52-.772 1.277-1.422 2.435-1.918L8.632 5.539C6.206 6.58 4.18 8.17 2.715 10.341l6.634 4.47zm2.49-1.942c1.197-.535 2.674-.853 4.513-.853v-8c-2.77 0-5.388.482-7.775 1.547l3.262 7.306zm4.513-.853c2.797 0 4.65.678 5.918 1.681l4.964-6.274c-3.02-2.389-6.768-3.407-10.882-3.407v8zm5.97 1.721c1.171.896 1.892 2.13 2.041 4.128l7.978-.594c-.3-4.018-1.978-7.456-5.16-9.888l-4.859 6.354zm6.03-.169H20.96v8h7.392v-8zm-3.398 3.778c-.13-2.328-1.2-4.319-2.996-5.744l-4.972 6.268c.042.033.054.049.05.043a.4.4 0 01-.07-.138c-.005-.019-.002-.016 0 .015l7.988-.444zM22.075 11.7c-1.802-1.544-4.013-2.115-6.203-2.115v8c.416 0 .67.053.809.098.127.04.172.077.188.091l5.206-6.074zm-6.203-2.115c-2.006 0-4.05.526-5.74 1.945l5.145 6.126c-.024.02-.029.012.032-.007.071-.023.245-.064.563-.064v-8zm-5.802 1.998c-1.849 1.617-2.518 3.82-2.518 5.938h8c0-.246.037-.296.01-.227a.882.882 0 01-.224.31l-5.268-6.021zM7.552 17.52c0 1.841.628 3.6 1.96 5.007l5.808-5.502a.935.935 0 01.183.3c.05.13.049.209.049.195h-8zm2.113 5.16c.978.926 2.108 1.646 3.334 2.191l3.25-7.31c-.502-.223-.844-.463-1.082-.689L9.665 22.68zm3.496 2.259c1.047.411 2.416.864 4.058 1.356l2.298-7.662c-1.558-.468-2.685-.847-3.43-1.14l-2.926 7.446zm4.078 1.363c2.069.608 3.64 1.183 4.77 1.709l3.374-7.254c-1.621-.754-3.603-1.459-5.886-2.13l-2.258 7.675zm4.77 1.709c.76.353 1.45.893 2.077 1.703l6.324-4.9c-1.356-1.75-3.034-3.13-5.027-4.057l-3.374 7.254zm2.077 1.703c.311.401.65 1.142.65 2.59h8c0-2.712-.653-5.331-2.326-7.49l-6.324 4.9zm.65 2.59c0 1.062-.264 2.01-.816 2.923l6.848 4.138a13.48 13.48 0 001.968-7.061h-8zm-.816 2.923c-.5.83-1.275 1.58-2.495 2.213l3.678 7.104c2.363-1.224 4.31-2.936 5.665-5.18l-6.848-4.136zm-2.445 2.187c-1.123.562-2.612.922-4.595.922v8c2.945 0 5.712-.536 8.173-1.766l-3.578-7.156zm38.527-22.006l3.688 1.55 2.332-5.55h-6.02v4zM43.538 54.576v4h2.658l1.03-2.45-3.688-1.55zm-7.152 0l-3.668-1.595-2.433 5.595h6.101v-4zm5.76-13.248l3.668 1.595.675-1.551-.643-1.565-3.7 1.521zM31.49 15.408v-4h-5.97l2.27 5.52 3.7-1.52zm7.536 0l3.752-1.386-.966-2.614h-2.786v4zm6.864 18.576l-3.752 1.386 3.726 10.084 3.772-10.067-3.746-1.403zm6.96-18.576v-4h-2.773l-.973 2.597 3.746 1.403zm3.465-1.55L39.85 53.026l7.375 3.1L63.69 16.958l-7.375-3.1zM43.538 50.576h-7.152v8h7.152v-8zm-3.484 5.595l5.76-13.248-7.336-3.19-5.76 13.248 7.336 3.19zm5.792-16.364L35.19 13.887l-7.4 3.042 10.656 25.92 7.4-3.042zM31.49 19.408h7.536v-8H31.49v8zm3.784-2.614l6.864 18.576 7.504-2.772-6.864-18.576-7.504 2.772zm14.362 18.593l6.96-18.576-7.492-2.806-6.96 18.576 7.492 2.806zm3.214-15.979h7.152v-8H52.85v8zm10.63 2.048l-3.544-1.854-.011.022-.011.021 3.566 1.811zm4.417-4.8l2.066 3.425-2.066-3.425zm11.135-.528l-1.759 3.592.03.015.03.014 1.7-3.621zm3.745 2.976l-3.21 2.387 7.21 9.696V19.104h-4zm0-12.624v-4h-4v4h4zm6.816 0h4v-4h-4v4zm0 35.52v4h4v-4h-4zm-6.817 0h-4v4h4v-4zm0-3.936h4V24.287L79.4 35.922l3.377 2.142zm-3.504 3.168L77.394 37.7l1.878 3.532zm-11.376-.528l2.11-3.399-2.11 3.399zm-4.416-4.848l-3.577 1.789.016.033.017.032 3.544-1.854zm18.385-11.328l-3.52 1.902.012.02.01.02 3.498-1.942zm-2.593-2.688l-2.028 3.448.039.022.038.022 1.951-3.492zm-6.96-.048l-1.995-3.466 1.996 3.466zm-2.591 2.688l-3.48-1.974-.008.015-.01.016 3.498 1.943zm0 8.352l-3.54 1.863.03.056.03.055 3.48-1.974zm2.591 2.736l-2.073 3.42.023.014.022.014 2.028-3.448zm6.96.048l1.952 3.492.038-.022.039-.022-2.029-3.448zm2.593-2.688l3.496 1.943.011-.02.011-.02-3.518-1.903zm-15.968-4.32c0-2.155.42-3.902 1.15-5.341l-7.133-3.622c-1.382 2.721-2.017 5.742-2.017 8.963h8zm1.128-5.298c.778-1.487 1.761-2.519 2.938-3.23l-4.133-6.849c-2.535 1.53-4.496 3.698-5.894 6.371l7.089 3.708zm2.938-3.23c1.202-.724 2.545-1.104 4.126-1.104v-8c-2.964 0-5.749.74-8.26 2.255l4.134 6.85zm4.126-1.104c1.111 0 2.158.242 3.184.744l3.519-7.184a15.1 15.1 0 00-6.704-1.56v8zm3.244.773c1.04.488 1.743 1.082 2.234 1.742l6.42-4.774c-1.366-1.836-3.158-3.226-5.255-4.21l-3.4 7.242zm9.444-.645V6.48h-8v12.624h8zm-4-8.624h6.816v-8h-6.817v8zm2.816-4V42h8V6.48h-8zm4 31.52h-6.817v8h6.817v-8zm-2.817 4v-3.936h-8V42h8zM79.4 35.922c-.426.671-1.052 1.272-2.005 1.779l3.757 7.063c2.055-1.094 3.765-2.605 5.004-4.558l-6.757-4.284zM77.394 37.7c-.837.445-1.916.731-3.354.731v8c2.531 0 4.94-.514 7.111-1.669L77.394 37.7zm-3.354.731c-1.514 0-2.828-.378-4.034-1.127l-4.219 6.798c2.506 1.555 5.288 2.329 8.253 2.329v-8zm-4.034-1.127c-1.203-.746-2.2-1.808-2.981-3.303l-7.089 3.708c1.394 2.665 3.342 4.835 5.851 6.393l4.219-6.798zm-2.948-3.238c-.739-1.478-1.162-3.265-1.162-5.459h-8c0 3.246.634 6.29 2.007 9.037l7.155-3.578zm19.766-5.363c0-2.152-.423-4.247-1.463-6.119l-6.993 3.886c.24.432.457 1.12.457 2.233h8zm-1.44-6.078c-.972-1.796-2.356-3.27-4.16-4.278l-3.903 6.984c.372.208.716.526 1.025 1.098l7.037-3.804zM81.3 18.392a10.793 10.793 0 00-5.532-1.512v8c.526 0 .995.125 1.475.408l4.057-6.896zm-5.532-1.512c-1.931 0-3.774.48-5.452 1.446l3.991 6.933a2.81 2.81 0 011.46-.379v-8zm-5.452 1.446c-1.745 1.004-3.093 2.45-4.075 4.18l6.957 3.948c.362-.637.742-.984 1.11-1.195l-3.992-6.933zm-4.093 4.211c-1.034 1.861-1.464 3.936-1.464 6.071h8c0-1.065.211-1.742.457-2.185l-6.993-3.886zm-1.464 6.071c0 2.142.432 4.209 1.42 6.087l7.08-3.726c-.291-.554-.5-1.303-.5-2.361h-8zm1.482 6.198c.974 1.716 2.298 3.153 3.997 4.183l4.147-6.842c-.413-.25-.817-.637-1.187-1.29l-6.957 3.95zm4.042 4.21c1.679.987 3.527 1.512 5.484 1.512v-8c-.475 0-.93-.115-1.427-.408l-4.057 6.896zm5.484 1.512c1.93 0 3.77-.478 5.456-1.42l-3.903-6.984a3.07 3.07 0 01-1.552.404v8zm5.533-1.464c1.73-1.018 3.09-2.446 4.06-4.193l-6.993-3.886c-.31.557-.678.921-1.124 1.183l4.057 6.896zm4.082-4.234c1.017-1.88 1.442-3.97 1.442-6.126h-8c0 1.108-.216 1.834-.48 2.322l7.038 3.804zm33.189-16.782l-2.874 2.782.011.012.011.011 2.852-2.805zM121.5 42v4h4v-4h-4zm-6.72 0h-4v4h4v-4zm-1.584-19.536l-2.949 2.703.019.02.019.021 2.911-2.744zm-8.736 0l-2.908-2.746-.003.002 2.911 2.744zM102.876 42v4h4v-4h-4zm-6.72 0h-4v4h4v-4zm0-26.592v-4h-4v4h4zm6.72 0h4v-4h-4v4zm0 3.312h-4v11.658l7.157-9.202-3.157-2.456zm3.408-2.688l1.687 3.627.018-.008.018-.01-1.723-3.609zm4.608 2.992c2.238 0 3.708.672 4.806 1.806l5.747-5.564c-2.805-2.898-6.455-4.242-10.553-4.242v8zm4.828 1.83c1.022 1.037 1.78 2.697 1.78 5.546h8c0-4.319-1.194-8.227-4.077-11.157l-5.703 5.61zm1.78 5.546V42h8V26.4h-8zm4 11.6h-6.72v8h6.72v-8zm-2.72 4V27.312h-8V42h8zm0-14.688c0-2.748-.693-5.49-2.674-7.592l-5.821 5.488c.131.139.495.628.495 2.104h8zm-2.636-7.55c-1.942-2.12-4.528-3.026-7.268-3.026v8c.908 0 1.201.245 1.371.43l5.897-5.405zm-7.268-3.026c-2.752 0-5.35.892-7.324 2.982l5.816 5.492c.202-.214.547-.474 1.508-.474v-8zm-7.327 2.984c-1.981 2.101-2.673 4.845-2.673 7.592h8c0-1.477.363-1.965.494-2.104l-5.821-5.488zm-2.673 7.592V42h8V27.312h-8zm4 10.688h-6.72v8h6.72v-8zm-2.72 4V15.408h-8V42h8zm-4-22.592h6.72v-8h-6.72v8zm2.72-4v3.312h8v-3.312h-8zm7.157 5.768c.49-.63 1.114-1.134 1.938-1.517l-3.374-7.254c-1.929.897-3.577 2.185-4.879 3.86l6.315 4.91zm1.974-1.534c.834-.398 1.776-.618 2.885-.618v-8c-2.22 0-4.35.452-6.331 1.398l3.446 7.22zm44.411 11.078v4h3.389l.557-3.342-3.946-.658zm-19.44 0v-4h-4.347l.361 4.332 3.986-.332zm2.016 4.512l-2.706 2.945 2.706-2.945zm9.696-1.584v-4h-2.489l-1.099 2.233 3.588 1.767zm7.248 0l3.831 1.15 1.545-5.15h-5.376v4zm-4.416 6.336l2.4 3.2.015-.011.015-.012-2.43-3.177zm-14.928.768l-1.984 3.473.032.018.033.018 1.919-3.509zm-4.752-4.848L124.32 37.8l.011.021.012.021 3.499-1.938zm0-14.448l-3.522-1.896 3.522 1.896zm4.704-4.8l1.943 3.497-1.943-3.497zm13.728-.048l-1.923 3.507.012.007.011.006 1.9-3.52zm4.656 4.656l-3.52 1.9.018.033.019.033 3.483-1.966zm-5.28 4.944v4h4.075l-.076-4.074-3.999.074zm-1.872-4.128l-2.623 3.02.023.02.024.02 2.576-3.06zm-8.688-.048l2.652 2.994.006-.004-2.658-2.99zm-2.064 4.176l-3.96-.566-.652 4.566h4.612v-4zm15.584 1.92c0 .788-.053 1.427-.137 1.934l7.891 1.316a19.88 19.88 0 00.246-3.25h-8zm3.808-1.408h-19.44v8h19.44v-8zm-23.426 4.332c.226 2.711 1.231 5.228 3.296 7.125l5.413-5.89c-.303-.279-.643-.77-.737-1.9l-7.972.665zm3.296 7.125c1.98 1.82 4.425 2.687 7.074 2.687v-8c-.807 0-1.274-.22-1.661-.577l-5.413 5.89zm7.074 2.687c1.828 0 3.643-.397 5.271-1.38 1.638-.988 2.832-2.417 3.645-4.069l-7.176-3.534c-.243.492-.465.671-.603.755-.148.089-.469.228-1.137.228v8zm5.328-3.216h7.248v-8h-7.248v8zm3.417-5.15c-.52 1.733-1.49 3.143-3.015 4.309l4.86 6.354c2.827-2.162 4.801-4.976 5.817-8.364l-7.662-2.298zm-2.985 4.286c-1.374 1.03-3.165 1.648-5.616 1.648v8c3.886 0 7.438-1.014 10.416-3.248l-4.8-6.4zm-5.616 1.648c-1.956 0-3.589-.422-4.993-1.19l-3.838 7.02c2.692 1.472 5.667 2.17 8.831 2.17v-8zm-4.927-1.153c-1.365-.78-2.432-1.858-3.238-3.313l-6.998 3.876c1.498 2.705 3.599 4.858 6.267 6.383l3.969-6.946zm-3.215-3.271c-.762-1.415-1.202-3.145-1.202-5.304h-8c0 3.281.68 6.35 2.158 9.096l7.044-3.792zm-1.202-5.304c0-2.2.444-3.944 1.202-5.352l-7.044-3.792c-1.482 2.752-2.158 5.84-2.158 9.144h8zm1.202-5.352c.767-1.424 1.794-2.46 3.125-3.2l-3.885-6.993c-2.702 1.501-4.81 3.664-6.284 6.4l7.044 3.793zm3.125-3.2c1.344-.746 2.978-1.176 5.017-1.176v-8c-3.209 0-6.214.69-8.902 2.183l3.885 6.994zm5.017-1.176c1.936 0 3.517.411 4.845 1.14l3.846-7.015c-2.64-1.448-5.571-2.125-8.691-2.125v8zm4.868 1.152a7.255 7.255 0 013.036 3.036l7.04-3.8a15.256 15.256 0 00-6.276-6.276l-3.8 7.04zm3.073 3.102c.737 1.306 1.163 2.899 1.163 4.898h8c0-3.185-.693-6.168-2.197-8.83l-6.966 3.932zm2.202 2.904c-.051-2.769-1.112-5.276-3.294-7.114l-5.153 6.12c.25.21.436.455.449 1.142l7.998-.148zm-3.248-7.074c-2.013-1.748-4.46-2.564-7.087-2.564v8c.893 0 1.423.24 1.841.604l5.246-6.04zm-7.087-2.564c-2.559 0-4.936.817-6.881 2.546l5.315 5.98c.359-.32.797-.526 1.566-.526v-8zm-6.876 2.542c-1.971 1.746-3.011 4.079-3.372 6.604l7.92 1.132c.151-1.059.488-1.51.756-1.748l-5.304-5.988zm.588 11.17h12.624v-8h-12.624v8zm49.017.512v4h3.389l.557-3.342-3.946-.658zm-19.44 0v-4h-4.347l.361 4.332 3.986-.332zm2.016 4.512l-2.706 2.945 2.706-2.945zm9.696-1.584v-4h-2.489l-1.099 2.233 3.588 1.767zm7.248 0l3.831 1.15 1.545-5.15h-5.376v4zm-4.416 6.336l2.4 3.2.015-.011.015-.012-2.43-3.177zm-14.928.768l-1.984 3.473.032.018.033.018 1.919-3.509zm-4.752-4.848l-3.522 1.896.011.021.012.021 3.499-1.938zm0-14.448l-3.522-1.896 3.522 1.896zm4.704-4.8l1.943 3.497-1.943-3.497zm13.728-.048l-1.923 3.507.012.007.011.006 1.9-3.52zm4.656 4.656l-3.52 1.9.018.033.019.033 3.483-1.966zm-5.28 4.944v4h4.075l-.076-4.074-3.999.074zm-1.872-4.128l-2.623 3.02.023.02.024.02 2.576-3.06zm-8.688-.048l2.652 2.994.006-.004-2.658-2.99zm-2.064 4.176l-3.96-.566-.652 4.566h4.612v-4zm15.584 1.92c0 .788-.053 1.427-.137 1.934l7.891 1.316a19.88 19.88 0 00.246-3.25h-8zm3.808-1.408h-19.44v8h19.44v-8zm-23.426 4.332c.226 2.711 1.231 5.228 3.296 7.125l5.413-5.89c-.303-.279-.643-.77-.737-1.9l-7.972.665zm3.296 7.125c1.98 1.82 4.425 2.687 7.074 2.687v-8c-.807 0-1.274-.22-1.661-.577l-5.413 5.89zm7.074 2.687c1.828 0 3.643-.397 5.271-1.38 1.638-.988 2.832-2.417 3.645-4.069l-7.176-3.534c-.243.492-.465.671-.603.755-.148.089-.469.228-1.137.228v8zm5.328-3.216h7.248v-8h-7.248v8zm3.417-5.15c-.52 1.733-1.49 3.143-3.015 4.309l4.86 6.354c2.827-2.162 4.801-4.976 5.817-8.364l-7.662-2.298zm-2.985 4.286c-1.374 1.03-3.165 1.648-5.616 1.648v8c3.886 0 7.438-1.014 10.416-3.248l-4.8-6.4zm-5.616 1.648c-1.956 0-3.589-.422-4.993-1.19l-3.838 7.02c2.692 1.472 5.667 2.17 8.831 2.17v-8zm-4.927-1.153c-1.365-.78-2.432-1.858-3.238-3.313l-6.998 3.876c1.498 2.705 3.599 4.858 6.267 6.383l3.969-6.946zm-3.215-3.271c-.762-1.415-1.202-3.145-1.202-5.304h-8c0 3.281.68 6.35 2.158 9.096l7.044-3.792zm-1.202-5.304c0-2.2.444-3.944 1.202-5.352l-7.044-3.792c-1.482 2.752-2.158 5.84-2.158 9.144h8zm1.202-5.352c.767-1.424 1.794-2.46 3.125-3.2l-3.885-6.993c-2.702 1.501-4.81 3.664-6.284 6.4l7.044 3.793zm3.125-3.2c1.344-.746 2.978-1.176 5.017-1.176v-8c-3.209 0-6.214.69-8.902 2.183l3.885 6.994zm5.017-1.176c1.936 0 3.517.411 4.845 1.14l3.846-7.015c-2.64-1.448-5.571-2.125-8.691-2.125v8zm4.868 1.152a7.255 7.255 0 013.036 3.036l7.04-3.8a15.256 15.256 0 00-6.276-6.276l-3.8 7.04zm3.073 3.102c.737 1.306 1.163 2.899 1.163 4.898h8c0-3.185-.693-6.168-2.197-8.83l-6.966 3.932zm2.202 2.904c-.051-2.769-1.112-5.276-3.294-7.114l-5.153 6.12c.25.21.436.455.449 1.142l7.998-.148zm-3.248-7.074c-2.013-1.748-4.46-2.564-7.087-2.564v8c.893 0 1.423.24 1.841.604l5.246-6.04zm-7.087-2.564c-2.559 0-4.936.817-6.881 2.546l5.315 5.98c.359-.32.797-.526 1.566-.526v-8zm-6.876 2.542c-1.971 1.746-3.011 4.079-3.372 6.604l7.92 1.132c.151-1.059.488-1.51.756-1.748l-5.304-5.988zm.588 11.17h12.624v-8h-12.624v8zM215.858 42l-3.481 1.97 1.149 2.03h2.332v-4zm-7.392-13.056l3.48-1.97-1.148-2.03h-2.332v4zm-3.168 0v-4h-4v4h4zm0 13.056v4h4v-4h-4zm-6.72 0h-4v4h4v-4zm0-33.504v-4h-4v4h4zm19.2 1.392l-1.814 3.565.025.013.025.012 1.764-3.59zm4.08 3.696l-3.473 1.985.024.042.025.041 3.424-2.068zm-.528 11.184l3.235 2.353.01-.014.01-.014-3.255-2.325zm-5.712 3.648l-1.028-3.866-5.098 1.355 2.681 4.544 3.445-2.033zM223.634 42v4h7.005l-3.56-6.033L223.634 42zm-18.336-18.096h-4v4h4v-4zm9.696-1.296l2.776 2.88.026-.026.026-.026-2.828-2.828zm0-7.248l-2.777 2.88.027.026.028.025 2.722-2.931zm-9.696-1.296v-4h-4v4h4zm14.04 25.965l-7.392-13.056-6.961 3.942 7.392 13.056 6.961-3.942zm-10.872-15.085h-3.168v8h3.168v-8zm-7.168 4V42h8V28.944h-8zm4 9.056h-6.72v8h6.72v-8zm-2.72 4V8.496h-8V42h8zm-4-29.504h12.576v-8h-12.576v8zm12.576 0c2.125 0 3.677.381 4.81.957l3.627-7.13c-2.515-1.28-5.379-1.827-8.437-1.827v8zm4.86.982c1.2.59 1.92 1.302 2.371 2.09l6.946-3.969c-1.342-2.346-3.341-4.099-5.79-5.301l-3.527 7.18zm2.42 2.175c.524.868.816 1.871.816 3.115h8c0-2.596-.637-5.049-1.969-7.253l-6.847 4.137zm.816 3.115c0 1.377-.381 2.563-1.175 3.675l6.51 4.65c1.766-2.472 2.665-5.286 2.665-8.325h-8zm-1.155 3.647c-.637.875-1.679 1.65-3.505 2.135l2.055 7.732c3.23-.859 5.996-2.516 7.92-5.161l-6.47-4.706zm-5.922 8.034l8.016 13.584 6.89-4.066-8.016-13.584-6.89 4.066zM223.634 38h-7.776v8h7.776v-8zm-18.336-10.096h5.616v-8h-5.616v8zm5.616 0c2.381 0 4.93-.559 6.856-2.417l-5.553-5.758c.134-.13-.037.175-1.303.175v8zm6.908-2.468c1.816-1.816 2.516-4.162 2.516-6.524h-8c0 .407-.059.632-.096.733a.32.32 0 01-.077.135l5.657 5.656zm2.516-6.524c0-2.344-.713-4.71-2.623-6.483l-5.443 5.862c-.02-.019-.025-.04-.012-.003.021.054.078.24.078.624h8zm-2.568-6.431c-1.926-1.858-4.475-2.417-6.856-2.417v8c1.266 0 1.437.305 1.303.175l5.553-5.758zm-6.856-2.417h-5.616v8h5.616v-8zm-9.616 4v9.84h8v-9.84h-8zm32.926 26.688l-1.961 3.486.02.012.021.011 1.92-3.509zm-4.848-4.848l-3.5 1.938.012.02.011.02 3.477-1.978zm.048-14.4l-3.454-2.019-.011.02-.012.02 3.477 1.979zm4.944-4.8l1.896 3.522.021-.011.021-.012-1.938-3.499zm13.92 0l-1.938 3.5.02.01.021.012 1.897-3.522zm4.896 4.8l-3.477 1.979.012.02.011.02 3.454-2.019zm-.048 14.4l-3.43-2.058-.012.02-.012.02 3.454 2.018zm-4.992 4.848l1.896 3.522.01-.005.009-.005-1.915-3.512zm-3.6-5.04l1.915 3.512.018-.01.018-.01-1.951-3.492zm2.592-2.688l3.518 1.902-3.518-1.902zm-1.056-10.128l-2.895 2.76.033.035.033.033 2.829-2.828zm-9.696 0l-2.895-2.76-.002.001 2.897 2.759zm-.048 11.664l-2.963 2.687.032.036.034.036 2.897-2.759zm4.8 3.872c-1.956 0-3.589-.422-4.993-1.19l-3.839 7.02c2.692 1.472 5.667 2.17 8.832 2.17v-8zm-4.951-1.166c-1.404-.79-2.501-1.88-3.333-3.34l-6.953 3.957c1.536 2.698 3.671 4.84 6.364 6.355l3.922-6.972zm-3.31-3.3c-.779-1.406-1.227-3.121-1.227-5.262h-8c0 3.3.703 6.384 2.228 9.138l6.999-3.876zm-1.227-5.262c0-2.122.456-3.823 1.252-5.221l-6.953-3.958c-1.572 2.762-2.299 5.861-2.299 9.179h8zm1.229-5.181c.853-1.459 1.968-2.533 3.387-3.297l-3.793-7.044c-2.74 1.476-4.921 3.602-6.501 6.303l6.907 4.038zm3.429-3.32c1.441-.798 3.086-1.227 5.022-1.227v-8c-3.185 0-6.18.723-8.898 2.229l3.876 6.998zm5.022-1.227c1.935 0 3.58.429 5.022 1.227l3.876-6.998c-2.719-1.506-5.714-2.229-8.898-2.229v8zm5.063 1.25c1.41.76 2.499 1.82 3.316 3.257l6.953-3.958c-1.55-2.723-3.726-4.862-6.476-6.343l-3.793 7.044zm3.339 3.297c.814 1.391 1.278 3.077 1.278 5.181h8c0-3.336-.753-6.45-2.371-9.219l-6.907 4.038zm1.278 5.181c0 2.085-.471 3.757-1.302 5.142l6.86 4.116c1.664-2.775 2.442-5.903 2.442-9.258h-8zm-1.326 5.181a8.755 8.755 0 01-3.454 3.355l3.831 7.024a16.755 16.755 0 006.53-6.341l-6.907-4.038zm-3.435 3.345c-1.442.777-3.116 1.202-5.111 1.202v8c3.188 0 6.186-.695 8.904-2.158l-3.793-7.044zm-5.111 3.346c1.877 0 3.673-.452 5.323-1.352l-3.831-7.024a3.008 3.008 0 01-1.492.376v8zm5.359-1.372c1.804-1.008 3.188-2.482 4.159-4.278l-7.037-3.804c-.309.572-.653.89-1.025 1.098l3.903 6.984zm4.159-4.278c1.028-1.9 1.442-4.031 1.442-6.222h-8c0 1.201-.227 1.95-.479 2.418l7.037 3.804zm1.442-6.222c0-3.227-.872-6.32-3.188-8.636l-5.657 5.656c.372.372.845 1.15.845 2.98h8zm-3.121-8.568c-2.076-2.177-4.742-3.304-7.743-3.304v8c.838 0 1.404.249 1.953.824l5.79-5.52zm-7.743-3.304c-3.002 0-5.668 1.127-7.743 3.304l5.79 5.52c.548-.575 1.114-.824 1.953-.824v-8zm-7.745 3.305c-2.212 2.323-3.023 5.39-3.023 8.567h8c0-1.88.468-2.684.816-3.05l-5.793-5.517zm-3.023 8.567c0 3.16.784 6.201 2.909 8.543l5.926-5.374c-.372-.41-.835-1.272-.835-3.169h-8zm2.975 8.615c2.064 2.167 4.724 3.257 7.697 3.257v-8c-.868 0-1.408-.254-1.904-.775l-5.793 5.518zm26.354-15.863l-3.544-1.854-.012.022-.011.021 3.567 1.811zm4.416-4.8l2.067 3.425-2.067-3.425zm11.136-.528l-1.759 3.592.029.015.03.014 1.7-3.621zm3.744 2.976l-3.21 2.387 7.21 9.696V19.104h-4zm0-12.624v-4h-4v4h4zm6.816 0h4v-4h-4v4zm0 35.52v4h4v-4h-4zm-6.816 0h-4v4h4v-4zm0-3.936h4V24.287l-7.378 11.635 3.378 2.142zm-3.504 3.168l-1.878-3.532 1.878 3.532zm-11.376-.528l2.109-3.399-2.109 3.399zm-4.416-4.848l-3.578 1.789.017.033.017.032 3.544-1.854zm18.384-11.328l-3.519 1.902.011.02.011.02 3.497-1.942zm-2.592-2.688l-2.028 3.448.038.022.039.022 1.951-3.492zm-6.96-.048l-1.996-3.466 1.996 3.466zm-2.592 2.688l-3.479-1.974-.009.015-.009.016 3.497 1.943zm0 8.352l-3.54 1.863.03.056.031.055 3.479-1.974zm2.592 2.736l-2.073 3.42.022.014.023.014 2.028-3.448zm6.96.048l1.951 3.492.039-.022.038-.022-2.028-3.448zm2.592-2.688l3.497 1.943.011-.02.011-.02-3.519-1.903zm-15.968-4.32c0-2.155.42-3.902 1.151-5.341l-7.134-3.622c-1.381 2.721-2.017 5.742-2.017 8.963h8zm1.128-5.298c.778-1.487 1.762-2.519 2.939-3.23l-4.134-6.849c-2.535 1.53-4.495 3.698-5.893 6.371l7.088 3.708zm2.939-3.23c1.201-.724 2.545-1.104 4.125-1.104v-8c-2.964 0-5.748.74-8.259 2.255l4.134 6.85zm4.125-1.104c1.112 0 2.158.242 3.185.744l3.518-7.184a15.097 15.097 0 00-6.703-1.56v8zm3.244.773c1.04.488 1.743 1.082 2.234 1.742l6.42-4.774c-1.365-1.836-3.158-3.226-5.254-4.21l-3.4 7.242zm9.444-.645V6.48h-8v12.624h8zm-4-8.624h6.816v-8h-6.816v8zm2.816-4V42h8V6.48h-8zm4 31.52h-6.816v8h6.816v-8zm-2.816 4v-3.936h-8V42h8zm-7.378-6.078c-.426.671-1.052 1.272-2.004 1.779l3.756 7.063c2.056-1.094 3.766-2.605 5.004-4.558l-6.756-4.284zm-2.004 1.779c-.838.445-1.917.731-3.354.731v8c2.531 0 4.94-.514 7.11-1.669l-3.756-7.063zm-3.354.731c-1.515 0-2.829-.378-4.035-1.127l-4.218 6.798c2.506 1.555 5.288 2.329 8.253 2.329v-8zm-4.035-1.127c-1.202-.746-2.199-1.808-2.981-3.303l-7.088 3.708c1.394 2.665 3.341 4.835 5.851 6.393l4.218-6.798zm-2.947-3.238c-.739-1.478-1.162-3.265-1.162-5.459h-8c0 3.246.633 6.29 2.006 9.037l7.156-3.578zm19.766-5.363c0-2.152-.423-4.247-1.463-6.119l-6.994 3.886c.24.432.457 1.12.457 2.233h8zm-1.441-6.078c-.971-1.796-2.356-3.27-4.16-4.278l-3.902 6.984c.372.208.715.526 1.024 1.098l7.038-3.804zm-4.083-4.234a10.792 10.792 0 00-5.532-1.512v8a2.8 2.8 0 011.476.408l4.056-6.896zm-5.532-1.512c-1.931 0-3.774.48-5.452 1.446l3.992 6.933a2.81 2.81 0 011.46-.379v-8zm-5.452 1.446c-1.745 1.004-3.093 2.45-4.075 4.18l6.958 3.948c.362-.637.742-.984 1.109-1.195l-3.992-6.933zm-4.093 4.211c-1.034 1.861-1.463 3.936-1.463 6.071h8c0-1.065.211-1.742.457-2.185l-6.994-3.886zm-1.463 6.071c0 2.142.432 4.209 1.42 6.087l7.08-3.726c-.292-.554-.5-1.303-.5-2.361h-8zm1.481 6.198c.974 1.716 2.299 3.153 3.998 4.183l4.146-6.842c-.413-.25-.816-.637-1.186-1.29l-6.958 3.95zm4.043 4.21c1.678.987 3.527 1.512 5.484 1.512v-8c-.475 0-.93-.115-1.428-.408l-4.056 6.896zm5.484 1.512c1.93 0 3.77-.478 5.455-1.42l-3.902-6.984a3.072 3.072 0 01-1.553.404v8zm5.532-1.464c1.731-1.018 3.09-2.446 4.061-4.193l-6.994-3.886c-.309.557-.678.921-1.123 1.183l4.056 6.896zm4.083-4.234c1.016-1.88 1.441-3.97 1.441-6.126h-8c0 1.108-.215 1.834-.479 2.322l7.038 3.804zm17.492-15.294h-4v14.166l7.41-12.074-3.41-2.092zm3.36-3.312l-1.976-3.478-.017.01-.017.01 2.01 3.458zm4.8-1.2h4v-4h-4v4zm0 7.056v4h4v-4h-4zm-6.576 1.488l-2.695-2.956-.022.02-.021.02 2.738 2.916zM299.188 42v4h4v-4h-4zm-6.72 0h-4v4h4v-4zm0-26.592v-4h-4v4h4zm6.72 0h4v-4h-4v4zm3.41 6.22c.531-.866 1.179-1.491 1.961-1.946l-4.021-6.916c-1.97 1.145-3.563 2.728-4.759 4.678l6.819 4.184zm1.926-1.926c.743-.422 1.649-.678 2.824-.678v-8c-2.409 0-4.703.544-6.776 1.722l3.952 6.956zm-1.176-4.678v7.056h8v-7.056h-8zm4 3.056h-1.776v8h1.776v-8zm-1.776 0c-2.679 0-5.404.626-7.495 2.532l5.39 5.912c.086-.078.561-.444 2.105-.444v-8zm-7.538 2.573c-2.273 2.134-2.846 5.263-2.846 8.099h8c0-.97.107-1.6.222-1.975.11-.36.192-.38.101-.294l-5.477-5.83zm-2.846 8.099V42h8V28.752h-8zm4 9.248h-6.72v8h6.72v-8zm-2.72 4V15.408h-8V42h8zm-4-22.592h6.72v-8h-6.72v8zm2.72-4v4.128h8v-4.128h-8zm17.119-4.272l-2.829 2.828.059.06.061.056 2.709-2.944zm0-5.616l2.767 2.888.003-.002-2.77-2.886zm5.904 0l-2.829 2.828.059.06.061.056 2.709-2.944zm0 5.616l2.767 2.888.003-.002-2.77-2.886zm.384 4.272h4v-4h-4v4zm0 26.592v4h4v-4h-4zm-6.72 0h-4v4h4v-4zm0-26.592v-4h-4v4h4zm3.408-7.168c-.174 0-.24-.026-.241-.026l-.002-.001h.001c-.001 0-.002 0-.006-.004a.19.19 0 01-.02-.017l-5.417 5.888c1.607 1.478 3.595 2.16 5.685 2.16v-8zm-.148.068l-.017-.019c-.002-.001 0 0 .003.005l.013.021a.284.284 0 01.023.055l.002.01c0-.002-.004-.025-.004-.076h-8c0 2.144.779 4.117 2.323 5.66l5.657-5.656zm.02-.004c0-.051.004-.071.003-.067a.484.484 0 01-.067.148c-.016.023-.025.03-.017.023l-5.535-5.776c-1.601 1.534-2.384 3.526-2.384 5.672h8zm-.078.102c.021-.02.031-.027.029-.025a.108.108 0 01-.012.005c-.003.002.006-.002.032-.007a.906.906 0 01.157-.011v-8c-2.14 0-4.148.732-5.747 2.266l5.541 5.772zm.206-.038a.86.86 0 01.148.01c.021.004.021.006.007 0a.235.235 0 01-.047-.024c-.015-.01-.018-.015-.009-.006l5.657-5.656c-1.59-1.59-3.617-2.324-5.756-2.324v8zm.219.096c.013.012.006.007-.011-.016a.56.56 0 01-.081-.181c-.003-.015.001-.004.001.037h8c0-2.2-.841-4.209-2.492-5.728l-5.417 5.888zm-.091-.16c0 .041-.004.054-.002.046a.359.359 0 01.051-.119c.008-.01.004-.004-.02.02l5.541 5.77c1.594-1.53 2.43-3.52 2.43-5.717h-8zm.032-.056l.013-.009a.226.226 0 01.035-.018c.02-.007-.034.019-.208.019v8c2.088 0 4.096-.683 5.695-2.216l-5.535-5.776zm-.848 7.16V42h8V15.408h-8zm4 22.592h-6.72v8h6.72v-8zm-2.72 4V15.408h-8V42h8zm-4-22.592h6.72v-8h-6.72v8zm29.007-3.232l-1.879 3.532.03.015.03.015 1.819-3.562zm3.552 3.024l-3.289 2.277 7.289 10.528V19.2h-4zm0-3.792v-4h-4v4h4zm6.768 0h4v-4h-4v4zm-1.488 33.36l-3.554-1.836-.006.012-.006.012 3.566 1.812zm-4.464 4.608l-1.967-3.483-.021.012-.021.012 2.009 3.459zm-16.512-.912l-2.366 3.226.011.007.01.008 2.345-3.241zm-4.08-7.2v-4h-4.443l.465 4.419 3.978-.419zm6.672 0l3.842-1.112-.836-2.888h-3.006v4zm2.256 2.88l2.112-3.397-.013-.008-.013-.008-2.086 3.413zm9.024-.672l-2.751-2.904-.02.019-.02.02 2.791 2.865zm1.824-9.408h4V25.259l-7.289 10.528 3.289 2.277zm-3.6 3.12l-1.905-3.517-.016.008-.015.009 1.936 3.5zm-11.328-.48l2.109-3.399-2.109 3.399zm-4.416-4.848l-3.578 1.789.017.033.016.032 3.545-1.854zm0-14.4l-3.545-1.854-.011.022-.011.021 3.567 1.811zm4.368-4.8l-2.067-3.425-.013.008-.013.008 2.093 3.409zm14.016 7.872l-3.519 1.902.011.02.011.02 3.497-1.942zm-2.592-2.688l-2.028 3.448.038.022.039.022 1.951-3.492zm-6.96-.048l-1.996-3.466 1.996 3.466zm-2.592 2.688l-3.479-1.974-.009.015-.009.016 3.497 1.943zm0 8.352l-3.54 1.863.03.056.031.055 3.479-1.974zm2.592 2.736l-2.073 3.42.022.014.023.014 2.028-3.448zm6.96.048l1.951 3.492.039-.022.038-.022-2.028-3.448zm2.592-2.688l3.497 1.943.011-.02.011-.02-3.519-1.903zm-7.824-13.952c1.437 0 2.516.286 3.353.732l3.757-7.063c-2.171-1.155-4.579-1.669-7.11-1.669v8zm3.413.762c.983.502 1.635 1.093 2.082 1.739l6.578-4.554c-1.281-1.85-2.997-3.275-5.022-4.31l-3.638 7.125zm9.371-.538v-3.792h-8V19.2h8zm-4 .208h6.768v-8h-6.768v8zm2.768-4v26.784h8V15.408h-8zm0 26.784c0 1.915-.382 3.463-1.042 4.74l7.108 3.672c1.324-2.563 1.934-5.4 1.934-8.412h-8zm-1.054 4.764c-.62 1.22-1.537 2.188-2.865 2.937l3.933 6.966c2.641-1.49 4.7-3.595 6.064-6.279l-7.132-3.624zm-2.907 2.96c-1.249.726-2.921 1.188-5.191 1.188v8c3.362 0 6.49-.69 9.208-2.269l-4.017-6.918zm-5.191 1.188c-3.153 0-5.376-.729-6.967-1.88l-4.69 6.48c3.272 2.369 7.258 3.4 11.657 3.4v-8zm-6.947-1.866c-1.463-1.073-2.261-2.44-2.467-4.393l-7.956.838c.434 4.126 2.356 7.56 5.692 10.007l4.731-6.452zm-6.445.026h6.672v-8h-6.672v8zm2.83-2.888c.649 2.243 2.07 3.994 4.012 5.181l4.172-6.826c-.362-.221-.445-.39-.5-.58l-7.684 2.225zm3.986 5.165c1.931 1.2 4.119 1.707 6.384 1.707v-8c-1.064 0-1.724-.23-2.16-.501l-4.224 6.794zm6.384 1.707c2.825 0 5.467-.889 7.542-2.91l-5.581-5.732c-.356.347-.883.642-1.961.642v8zm7.503-2.872c2.297-2.176 3.073-5.181 3.073-8.184h-8c0 1.733-.44 2.248-.575 2.376l5.502 5.808zm3.073-8.184v-4.128h-8v4.128h8zm-7.289-6.405c-.456.659-1.149 1.302-2.216 1.88l3.81 7.034c2.005-1.086 3.712-2.523 4.984-4.36l-6.578-4.554zm-2.247 1.897c-.835.462-1.88.748-3.248.748v8c2.536 0 4.947-.546 7.12-1.748l-3.872-7zm-3.248.748c-1.515 0-2.829-.378-4.035-1.127l-4.219 6.798c2.507 1.555 5.288 2.329 8.254 2.329v-8zm-4.035-1.127c-1.203-.746-2.199-1.808-2.981-3.303l-7.089 3.708c1.394 2.665 3.342 4.835 5.851 6.393l4.219-6.798zm-2.947-3.238c-.739-1.478-1.162-3.265-1.162-5.459h-8c0 3.246.633 6.29 2.006 9.037l7.156-3.578zm-1.162-5.459c0-2.155.42-3.902 1.151-5.341l-7.134-3.622c-1.381 2.721-2.017 5.742-2.017 8.963h8zm1.128-5.298c.787-1.504 1.767-2.539 2.917-3.245l-4.186-6.818c-2.498 1.534-4.43 3.7-5.82 6.355l7.089 3.708zm2.891-3.23c1.201-.724 2.545-1.104 4.125-1.104v-8c-2.964 0-5.749.74-8.259 2.255l4.134 6.85zm16.909 8.624c0-2.152-.423-4.247-1.463-6.119l-6.994 3.886c.24.432.457 1.12.457 2.233h8zm-1.441-6.078c-.971-1.796-2.356-3.27-4.16-4.278l-3.902 6.984c.372.208.715.526 1.024 1.098l7.038-3.804zm-4.083-4.234a10.792 10.792 0 00-5.532-1.512v8a2.8 2.8 0 011.476.408l4.056-6.896zm-5.532-1.512c-1.931 0-3.774.48-5.452 1.446l3.992 6.933c.433-.25.895-.379 1.46-.379v-8zm-5.452 1.446c-1.745 1.004-3.093 2.45-4.075 4.18l6.958 3.948c.362-.637.742-.984 1.109-1.195l-3.992-6.933zm-4.093 4.211c-1.034 1.861-1.463 3.936-1.463 6.071h8c0-1.065.21-1.742.457-2.185l-6.994-3.886zm-1.463 6.071c0 2.142.432 4.209 1.42 6.087l7.08-3.726c-.292-.554-.5-1.303-.5-2.361h-8zm1.481 6.198c.974 1.716 2.299 3.153 3.998 4.183l4.146-6.842c-.413-.25-.816-.637-1.186-1.29l-6.958 3.95zm4.043 4.21c1.678.987 3.527 1.512 5.484 1.512v-8c-.475 0-.93-.115-1.428-.408l-4.056 6.896zm5.484 1.512c1.93 0 3.77-.478 5.455-1.42l-3.902-6.984a3.072 3.072 0 01-1.553.404v8zm5.532-1.464c1.731-1.018 3.09-2.446 4.061-4.193l-6.994-3.886c-.309.557-.678.921-1.123 1.183l4.056 6.896zm4.083-4.234c1.016-1.88 1.441-3.97 1.441-6.126h-8c0 1.108-.215 1.834-.479 2.322l7.038 3.804zm35.876-19.422h4v-4h-4v4zm0 26.592v4h4v-4h-4zm-6.768 0h-4v4h4v-4zm0-3.36h4v-12l-7.2 9.6 3.2 2.4zm-3.408 2.736l1.687 3.627.018-.008.018-.01-1.723-3.609zm-10.032-.336l-1.954 3.49.027.015.027.015 1.9-3.52zm-3.792-3.888l-3.551 1.841.021.04.021.039 3.509-1.92zm-1.344-21.744v-4h-4v4h4zm6.72 0h4v-4h-4v4zm1.584 19.536l-2.948 2.703.018.02.02.021 2.91-2.744zm8.688 0l2.91 2.744.02-.02.019-.021-2.949-2.703zm1.584-19.536v-4h-4v4h4zm2.768 0V42h8V15.408h-8zm4 22.592h-6.768v8h6.768v-8zm-2.768 4v-3.36h-8V42h8zm-7.2-5.76c-.445.593-1.056 1.108-1.931 1.526l3.446 7.22c1.941-.926 3.602-2.235 4.885-3.946l-6.4-4.8zm-1.895 1.51c-.808.375-1.731.586-2.825.586v8c2.17 0 4.256-.43 6.199-1.333l-3.374-7.254zm-2.825.586c-1.513 0-2.682-.31-3.619-.816l-3.801 7.04c2.263 1.222 4.773 1.776 7.42 1.776v-8zm-3.565-.786c-.909-.509-1.65-1.243-2.238-2.318l-7.018 3.84c1.268 2.317 3.055 4.175 5.347 5.458l3.909-6.98zm-2.196-2.24c-.544-1.048-.895-2.438-.895-4.302h-8c0 2.872.545 5.578 1.793 7.985l7.102-3.682zm-.895-4.302v-15.6h-8v15.6h8zm-4-11.6h6.72v-8h-6.72v8zm2.72-4v14.64h8v-14.64h-8zm0 14.64c0 2.756.696 5.483 2.636 7.599l5.897-5.406c-.172-.188-.533-.725-.533-2.193h-8zm2.674 7.64c1.951 2.07 4.525 2.936 7.23 2.936v-8c-.943 0-1.249-.253-1.41-.424l-5.82 5.488zm7.23 2.936c2.713 0 5.314-.852 7.278-2.936l-5.82-5.488c-.148.156-.459.424-1.458.424v8zm7.317-2.977c1.94-2.116 2.635-4.843 2.635-7.599h-8c0 1.468-.36 2.005-.532 2.193l5.897 5.406zm2.635-7.599v-14.64h-8v14.64h8zm-4-10.64h6.768v-8h-6.768v8zm37.927 11.312v4h3.388l.557-3.342-3.945-.658zm-19.44 0v-4h-4.348l.361 4.332 3.987-.332zm2.016 4.512l-2.707 2.945 2.707-2.945zm9.696-1.584v-4h-2.489l-1.1 2.233 3.589 1.767zm7.248 0l3.831 1.15 1.545-5.15h-5.376v4zm-4.416 6.336l2.4 3.2.014-.011.015-.012-2.429-3.177zm-14.928.768l-1.985 3.473.032.018.033.018 1.92-3.509zm-4.752-4.848L385.93 37.8l.011.021.011.021 3.5-1.938zm0-14.448l-3.522-1.896 3.522 1.896zm4.704-4.8l1.942 3.497-1.942-3.497zm13.728-.048l-1.924 3.507.012.007.012.006 1.9-3.52zm4.656 4.656l-3.521 1.9.018.033.019.033 3.484-1.966zm-5.28 4.944v4h4.074l-.075-4.074-3.999.074zm-1.872-4.128l-2.623 3.02.023.02.023.02 2.577-3.06zm-8.688-.048l2.652 2.994.005-.004-2.657-2.99zm-2.064 4.176l-3.96-.566-.653 4.566h4.613v-4zm15.584 1.92c0 .788-.053 1.427-.138 1.934l7.891 1.316c.171-1.029.247-2.118.247-3.25h-8zm3.808-1.408h-19.44v8h19.44v-8zm-23.427 4.332c.226 2.711 1.231 5.228 3.296 7.125l5.413-5.89c-.303-.279-.642-.77-.736-1.9l-7.973.665zm3.296 7.125c1.98 1.82 4.426 2.687 7.075 2.687v-8c-.808 0-1.274-.22-1.662-.577l-5.413 5.89zm7.075 2.687c1.827 0 3.643-.397 5.271-1.38 1.638-.988 2.831-2.417 3.645-4.069l-7.177-3.534c-.242.492-.465.671-.603.755-.148.089-.468.228-1.136.228v8zm5.328-3.216h7.248v-8H406.3v8zm3.416-5.15c-.519 1.733-1.489 3.143-3.014 4.309l4.859 6.354c2.827-2.162 4.801-4.976 5.818-8.364l-7.663-2.298zm-2.984 4.286c-1.374 1.03-3.166 1.648-5.616 1.648v8c3.885 0 7.437-1.014 10.416-3.248l-4.8-6.4zm-5.616 1.648c-1.956 0-3.589-.422-4.993-1.19l-3.839 7.02c2.692 1.472 5.667 2.17 8.832 2.17v-8zm-4.928-1.153c-1.364-.78-2.431-1.858-3.237-3.313l-6.999 3.876c1.498 2.705 3.599 4.858 6.267 6.383l3.969-6.946zm-3.215-3.271c-.761-1.415-1.202-3.145-1.202-5.304h-8c0 3.281.68 6.35 2.159 9.096l7.043-3.792zm-1.202-5.304c0-2.2.444-3.944 1.202-5.352l-7.043-3.792c-1.482 2.752-2.159 5.84-2.159 9.144h8zm1.202-5.352c.767-1.424 1.795-2.46 3.125-3.2l-3.885-6.993c-2.702 1.501-4.81 3.664-6.283 6.4l7.043 3.793zm3.125-3.2c1.344-.746 2.978-1.176 5.018-1.176v-8c-3.209 0-6.215.69-8.903 2.183l3.885 6.994zm5.018-1.176c1.935 0 3.516.411 4.844 1.14l3.847-7.015c-2.64-1.448-5.571-2.125-8.691-2.125v8zm4.868 1.152a7.259 7.259 0 013.035 3.036l7.041-3.8a15.258 15.258 0 00-6.277-6.276l-3.799 7.04zm3.072 3.102c.737 1.306 1.164 2.899 1.164 4.898h8c0-3.185-.694-6.168-2.197-8.83l-6.967 3.932zm2.203 2.904c-.051-2.769-1.113-5.276-3.295-7.114l-5.153 6.12c.25.21.436.455.449 1.142l7.999-.148zm-3.249-7.074c-2.013-1.748-4.459-2.564-7.086-2.564v8c.892 0 1.422.24 1.841.604l5.245-6.04zm-7.086-2.564c-2.56 0-4.937.817-6.882 2.546l5.315 5.98c.359-.32.798-.526 1.567-.526v-8zm-6.877 2.542c-1.971 1.746-3.011 4.079-3.371 6.604l7.919 1.132c.152-1.059.488-1.51.757-1.748l-5.305-5.988zm.589 11.17h12.624v-8h-12.624v8zm30.633 6.272l-3.203-2.397-4.788 6.397h7.991v-4zm11.856 0h4v-4h-4v4zm0 5.52v4h4v-4h-4zm-19.488 0h-4v4h4v-4zm0-5.424l-3.212-2.384-.788 1.062v1.322h4zm11.616-15.648l3.211 2.384 4.739-6.384h-7.95v4zm-11.568 0h-4v4h4v-4zm0-5.52v-4h-4v4h4zm19.296 0h4v-4h-4v4zm0 5.424l3.202 2.397.798-1.066v-1.331h-4zM425.269 40.48h11.856v-8h-11.856v8zm7.856-4V42h8v-5.52h-8zm4 1.52h-19.488v8h19.488v-8zm-15.488 4v-5.424h-8V42h8zm-.789-3.04l11.616-15.648-6.423-4.768-11.616 15.648 6.423 4.768zm8.405-22.032h-11.568v8h11.568v-8zm-7.568 4v-5.52h-8v5.52h8zm-4-1.52h19.296v-8h-19.296v8zm15.296-4v5.424h8v-5.424h-8zm.797 3.027l-11.712 15.648 6.405 4.794 11.712-15.648-6.405-4.794z"
  />
  <path
    class="fill"
    d="M16.88 42.336c-2.336 0-4.448-.4-6.336-1.2-1.856-.8-3.328-1.952-4.416-3.456-1.088-1.504-1.648-3.28-1.68-5.328h7.2c.096 1.376.576 2.464 1.44 3.264.896.8 2.112 1.2 3.648 1.2 1.568 0 2.8-.368 3.696-1.104.896-.768 1.344-1.76 1.344-2.976 0-.992-.304-1.808-.912-2.448-.608-.64-1.376-1.136-2.304-1.488-.896-.384-2.144-.8-3.744-1.248-2.176-.64-3.952-1.264-5.328-1.872-1.344-.64-2.512-1.584-3.504-2.832-.96-1.28-1.44-2.976-1.44-5.088 0-1.984.496-3.712 1.488-5.184s2.384-2.592 4.176-3.36c1.792-.8 3.84-1.2 6.144-1.2 3.456 0 6.256.848 8.4 2.544 2.176 1.664 3.376 4 3.6 7.008H20.96c-.064-1.152-.56-2.096-1.488-2.832-.896-.768-2.096-1.152-3.6-1.152-1.312 0-2.368.336-3.168 1.008-.768.672-1.152 1.648-1.152 2.928 0 .896.288 1.648.864 2.256.608.576 1.344 1.056 2.208 1.44.896.352 2.144.768 3.744 1.248 2.176.64 3.952 1.28 5.328 1.92 1.376.64 2.56 1.6 3.552 2.88.992 1.28 1.488 2.96 1.488 5.04a9.48 9.48 0 01-1.392 4.992c-.928 1.536-2.288 2.768-4.08 3.696-1.792.896-3.92 1.344-6.384 1.344zm43.122-26.928L43.538 54.576h-7.152l5.76-13.248-10.656-25.92h7.536l6.864 18.576 6.96-18.576h7.152zm1.895 13.2c0-2.688.528-5.072 1.584-7.152 1.087-2.08 2.56-3.68 4.416-4.8 1.855-1.12 3.92-1.68 6.191-1.68a11.1 11.1 0 014.945 1.152c1.567.736 2.816 1.728 3.743 2.976V6.48h6.817V42h-6.817v-3.936c-.831 1.312-2 2.368-3.504 3.168-1.504.8-3.248 1.2-5.232 1.2-2.24 0-4.288-.576-6.144-1.728-1.856-1.152-3.328-2.768-4.416-4.848-1.055-2.112-1.583-4.528-1.583-7.248zm20.928.096c0-1.632-.32-3.024-.96-4.176-.64-1.184-1.504-2.08-2.593-2.688a6.795 6.795 0 00-3.504-.96c-1.248 0-2.4.304-3.456.912-1.055.608-1.92 1.504-2.591 2.688-.64 1.152-.96 2.528-.96 4.128s.32 3.008.96 4.224c.671 1.184 1.535 2.096 2.591 2.736 1.088.64 2.24.96 3.457.96a7.069 7.069 0 003.503-.912c1.088-.64 1.953-1.536 2.593-2.688.64-1.184.96-2.592.96-4.224zm28.067-13.68c3.168 0 5.728 1.008 7.68 3.024 1.952 1.984 2.928 4.768 2.928 8.352V42h-6.72V27.312c0-2.112-.528-3.728-1.584-4.848-1.056-1.152-2.496-1.728-4.32-1.728-1.856 0-3.328.576-4.416 1.728-1.056 1.12-1.584 2.736-1.584 4.848V42h-6.72V15.408h6.72v3.312c.896-1.152 2.032-2.048 3.408-2.688 1.408-.672 2.944-1.008 4.608-1.008zm41.718 13.104c0 .96-.064 1.824-.192 2.592h-19.44c.16 1.92.832 3.424 2.016 4.512 1.184 1.088 2.64 1.632 4.368 1.632 2.496 0 4.272-1.072 5.328-3.216h7.248c-.768 2.56-2.24 4.672-4.416 6.336-2.176 1.632-4.848 2.448-8.016 2.448-2.56 0-4.864-.56-6.912-1.68-2.016-1.152-3.6-2.768-4.752-4.848-1.12-2.08-1.68-4.48-1.68-7.2 0-2.752.56-5.168 1.68-7.248 1.12-2.08 2.688-3.68 4.704-4.8 2.016-1.12 4.336-1.68 6.96-1.68 2.528 0 4.784.544 6.768 1.632a11.258 11.258 0 014.656 4.656c1.12 1.984 1.68 4.272 1.68 6.864zm-6.96-1.92c-.032-1.728-.656-3.104-1.872-4.128-1.216-1.056-2.704-1.584-4.464-1.584-1.664 0-3.072.512-4.224 1.536-1.12.992-1.808 2.384-2.064 4.176h12.624zm36.585 1.92c0 .96-.064 1.824-.192 2.592h-19.44c.16 1.92.832 3.424 2.016 4.512 1.184 1.088 2.64 1.632 4.368 1.632 2.496 0 4.272-1.072 5.328-3.216h7.248c-.768 2.56-2.24 4.672-4.416 6.336-2.176 1.632-4.848 2.448-8.016 2.448-2.56 0-4.864-.56-6.912-1.68-2.016-1.152-3.6-2.768-4.752-4.848-1.12-2.08-1.68-4.48-1.68-7.2 0-2.752.56-5.168 1.68-7.248 1.12-2.08 2.688-3.68 4.704-4.8 2.016-1.12 4.336-1.68 6.96-1.68 2.528 0 4.784.544 6.768 1.632a11.258 11.258 0 014.656 4.656c1.12 1.984 1.68 4.272 1.68 6.864zm-6.96-1.92c-.032-1.728-.656-3.104-1.872-4.128-1.216-1.056-2.704-1.584-4.464-1.584-1.664 0-3.072.512-4.224 1.536-1.12.992-1.808 2.384-2.064 4.176h12.624zM215.858 42l-7.392-13.056h-3.168V42h-6.72V8.496h12.576c2.592 0 4.8.464 6.624 1.392 1.824.896 3.184 2.128 4.08 3.696.928 1.536 1.392 3.264 1.392 5.184 0 2.208-.64 4.208-1.92 6-1.28 1.76-3.184 2.976-5.712 3.648L223.634 42h-7.776zm-10.56-18.096h5.616c1.824 0 3.184-.432 4.08-1.296.896-.896 1.344-2.128 1.344-3.696 0-1.536-.448-2.72-1.344-3.552-.896-.864-2.256-1.296-4.08-1.296h-5.616v9.84zm35.838 18.528c-2.56 0-4.864-.56-6.912-1.68-2.048-1.152-3.664-2.768-4.848-4.848-1.152-2.08-1.728-4.48-1.728-7.2 0-2.72.592-5.12 1.776-7.2 1.216-2.08 2.864-3.68 4.944-4.8 2.08-1.152 4.4-1.728 6.96-1.728 2.56 0 4.88.576 6.96 1.728 2.08 1.12 3.712 2.72 4.896 4.8 1.216 2.08 1.824 4.48 1.824 7.2 0 2.72-.624 5.12-1.872 7.2a12.755 12.755 0 01-4.992 4.848c-2.08 1.12-4.416 1.68-7.008 1.68zm0-5.856a7.006 7.006 0 003.408-.864c1.088-.608 1.952-1.504 2.592-2.688.64-1.184.96-2.624.96-4.32 0-2.528-.672-4.464-2.016-5.808-1.312-1.376-2.928-2.064-4.848-2.064s-3.536.688-4.848 2.064c-1.28 1.344-1.92 3.28-1.92 5.808s.624 4.48 1.872 5.856c1.28 1.344 2.88 2.016 4.8 2.016zm17.073-7.968c0-2.688.528-5.072 1.584-7.152 1.088-2.08 2.56-3.68 4.416-4.8 1.856-1.12 3.92-1.68 6.192-1.68a11.1 11.1 0 014.944 1.152c1.568.736 2.816 1.728 3.744 2.976V6.48h6.816V42h-6.816v-3.936c-.832 1.312-2 2.368-3.504 3.168-1.504.8-3.248 1.2-5.232 1.2-2.24 0-4.288-.576-6.144-1.728-1.856-1.152-3.328-2.768-4.416-4.848-1.056-2.112-1.584-4.528-1.584-7.248zm20.928.096c0-1.632-.32-3.024-.96-4.176-.64-1.184-1.504-2.08-2.592-2.688a6.795 6.795 0 00-3.504-.96c-1.248 0-2.4.304-3.456.912-1.056.608-1.92 1.504-2.592 2.688-.64 1.152-.96 2.528-.96 4.128s.32 3.008.96 4.224c.672 1.184 1.536 2.096 2.592 2.736 1.088.64 2.24.96 3.456.96a7.069 7.069 0 003.504-.912c1.088-.64 1.952-1.536 2.592-2.688.64-1.184.96-2.592.96-4.224zm20.051-9.168c.864-1.408 1.984-2.512 3.36-3.312 1.408-.8 3.008-1.2 4.8-1.2v7.056h-1.776c-2.112 0-3.712.496-4.8 1.488-1.056.992-1.584 2.72-1.584 5.184V42h-6.72V15.408h6.72v4.128zm16.095-7.296c-1.184 0-2.176-.368-2.976-1.104-.768-.768-1.152-1.712-1.152-2.832 0-1.12.384-2.048 1.152-2.784.8-.768 1.792-1.152 2.976-1.152s2.16.384 2.928 1.152c.8.736 1.2 1.664 1.2 2.784 0 1.12-.4 2.064-1.2 2.832-.768.736-1.744 1.104-2.928 1.104zm3.312 3.168V42h-6.72V15.408h6.72zm17.055-.432c1.984 0 3.728.4 5.232 1.2 1.504.768 2.688 1.776 3.552 3.024v-3.792h6.768v26.784c0 2.464-.496 4.656-1.488 6.576-.992 1.952-2.48 3.488-4.464 4.608-1.984 1.152-4.384 1.728-7.2 1.728-3.776 0-6.88-.88-9.312-2.64-2.4-1.76-3.76-4.16-4.08-7.2h6.672c.352 1.216 1.104 2.176 2.256 2.88 1.184.736 2.608 1.104 4.272 1.104 1.952 0 3.536-.592 4.752-1.776 1.216-1.152 1.824-2.912 1.824-5.28v-4.128c-.864 1.248-2.064 2.288-3.6 3.12-1.504.832-3.232 1.248-5.184 1.248-2.24 0-4.288-.576-6.144-1.728-1.856-1.152-3.328-2.768-4.416-4.848-1.056-2.112-1.584-4.528-1.584-7.248 0-2.688.528-5.072 1.584-7.152 1.088-2.08 2.544-3.68 4.368-4.8 1.856-1.12 3.92-1.68 6.192-1.68zm8.784 13.728c0-1.632-.32-3.024-.96-4.176-.64-1.184-1.504-2.08-2.592-2.688a6.795 6.795 0 00-3.504-.96c-1.248 0-2.4.304-3.456.912-1.056.608-1.92 1.504-2.592 2.688-.64 1.152-.96 2.528-.96 4.128s.32 3.008.96 4.224c.672 1.184 1.536 2.096 2.592 2.736 1.088.64 2.24.96 3.456.96a7.069 7.069 0 003.504-.912c1.088-.64 1.952-1.536 2.592-2.688.64-1.184.96-2.592.96-4.224zm38.435-13.296V42h-6.768v-3.36c-.864 1.152-2 2.064-3.408 2.736-1.376.64-2.88.96-4.512.96-2.08 0-3.92-.432-5.52-1.296-1.6-.896-2.864-2.192-3.792-3.888-.896-1.728-1.344-3.776-1.344-6.144v-15.6h6.72v14.64c0 2.112.528 3.744 1.584 4.896 1.056 1.12 2.496 1.68 4.32 1.68 1.856 0 3.312-.56 4.368-1.68 1.056-1.152 1.584-2.784 1.584-4.896v-14.64h6.768zm31.351 12.72c0 .96-.064 1.824-.192 2.592h-19.44c.16 1.92.832 3.424 2.016 4.512 1.184 1.088 2.64 1.632 4.368 1.632 2.496 0 4.272-1.072 5.328-3.216h7.248c-.768 2.56-2.24 4.672-4.416 6.336-2.176 1.632-4.848 2.448-8.016 2.448-2.56 0-4.864-.56-6.912-1.68-2.016-1.152-3.6-2.768-4.752-4.848-1.12-2.08-1.681-4.48-1.681-7.2 0-2.752.561-5.168 1.681-7.248s2.688-3.68 4.704-4.8c2.016-1.12 4.336-1.68 6.96-1.68 2.528 0 4.784.544 6.768 1.632a11.258 11.258 0 014.656 4.656c1.12 1.984 1.68 4.272 1.68 6.864zm-6.96-1.92c-.032-1.728-.656-3.104-1.872-4.128-1.216-1.056-2.704-1.584-4.464-1.584-1.664 0-3.072.512-4.224 1.536-1.12.992-1.808 2.384-2.064 4.176h12.624zm18.009 10.272h11.856V42h-19.488v-5.424l11.616-15.648h-11.568v-5.52h19.296v5.424L425.269 36.48z"
  />
</svg>
